Coordinates
version=1
nRows=32
nColumns=22
inDegrees=yes

Units are S.I. units (second, meters, Newtons, ...)
If the header above contains a line with 'inDegrees', this indicates whether rotational values are in degrees (yes) or radians (no).

endheader
time	pelvis_tilt	pelvis_list	pelvis_rotation	pelvis_tx	pelvis_ty	pelvis_tz	hip_flexion_r	hip_adduction_r	hip_rotation_r	knee_angle_r	ankle_angle_r	subtalar_angle_r	hip_flexion_l	hip_adduction_l	hip_rotation_l	knee_angle_l	ankle_angle_l	subtalar_angle_l	lumbar_extension	lumbar_bending	lumbar_rotation
      4.25000000	     -0.68859617	     -2.49271346	    -87.81659335	      0.49040691	      0.99753886	      0.73269765	     -9.49664612	     -2.40808763	      0.14727042	    -37.61418631	     -5.45643996	      6.83903853	     17.58215850	     -5.39012811	     -1.42272440	    -16.29860768	     -1.45796563	      5.04722621	     -1.53418639	     -2.71795325	      7.44296998
      4.26000000	     -0.53121639	     -2.41794474	    -88.31372013	      0.49489693	      0.99906910	      0.74037515	     -8.24176258	     -3.22473026	     -0.95324840	    -39.77961404	     -7.13532083	      6.82920154	     17.14903529	     -5.07844774	     -1.98213448	    -16.43439931	     -1.14721614	      4.60631603	     -1.62925400	     -2.85556645	      7.35463530
      4.27000000	     -0.32702225	     -2.33599403	    -88.81978650	      0.49933266	      1.00047217	      0.74783154	     -6.90824066	     -4.10945633	     -1.94559985	    -42.00300544	     -8.45579877	      6.94968619	     16.68582677	     -4.70527807	     -2.54494183	    -16.47183281	     -0.84737070	      4.24895374	     -1.73513964	     -3.03197967	      7.23630516
      4.28000000	     -0.07897261	     -2.25741348	    -89.32444675	      0.50368650	      1.00175165	      0.75508150	     -5.53119031	     -5.03281807	     -2.79490544	    -44.23040796	     -9.35099418	      7.12164095	     16.20464590	     -4.27436833	     -3.09869458	    -16.45247882	     -0.55807125	      3.94326816	     -1.85856266	     -3.25160642	      7.07084661
      4.29000000	      0.18656188	     -2.17686401	    -89.80367604	      0.50799273	      1.00288155	      0.76215063	     -4.13360154	     -5.95330422	     -3.51913046	    -46.40048578	     -9.76884418	      7.28605746	     15.74587491	     -3.81205112	     -3.64617406	    -16.43080901	     -0.21564744	      3.57705410	     -1.98520252	     -3.47723813	      6.83175305
      4.30000000	      0.45180466	     -2.10797688	    -90.26050609	      0.51218291	      1.00392461	      0.76906114	     -2.75284409	     -6.82245261	     -4.08768772	    -48.44738096	     -9.71609129	      7.42529202	     15.29691755	     -3.34232888	     -4.16144024	    -16.41346488	      0.13808985	      3.20743129	     -2.12465382	     -3.70117046	      6.53471382
      4.31000000	      0.69445508	     -2.04921528	    -90.69343282	      0.51622590	      1.00490226	      0.77581089	     -1.40031242	     -7.60083558	     -4.50928106	    -50.32545867	     -9.22565785	      7.48464276	     14.87189987	     -2.89312122	     -4.63314608	    -16.42065537	      0.49597164	      2.84700763	     -2.27173902	     -3.90084047	      6.19374123
      4.32000000	      0.88293805	     -1.98263007	    -91.10013442	      0.52009100	      1.00581188	      0.78238008	     -0.06386314	     -8.23954674	     -4.79959073	    -52.00058166	     -8.39614306	      7.41188091	     14.51011100	     -2.50191531	     -5.05068019	    -16.48987431	      0.86919977	      2.42297400	     -2.40662204	     -4.04408446	      5.81176046
      4.33000000	      1.02958033	     -1.95240117	    -91.49658318	      0.52372034	      1.00676212	      0.78880850	      1.19050138	     -8.74278182	     -4.96188645	    -53.43335496	     -7.20075368	      7.13960349	     14.13076727	     -2.16151718	     -5.42065256	    -16.56749893	      1.23203264	      2.18498636	     -2.57361499	     -4.15126544	      5.40089166
      4.34000000	      1.09857022	     -1.90694476	    -91.87598710	      0.52713255	      1.00766158	      0.79502164	      2.42947212	     -9.07660250	     -5.03895121	    -54.62965012	     -5.79707978	      6.67079021	     13.82735194	     -1.91185410	     -5.74289905	    -16.72306288	      1.62068295	      1.91740683	     -2.72334592	     -4.18130733	      4.98407203
      4.35000000	      1.10122426	     -1.85746933	    -92.25004017	      0.53031525	      1.00855388	      0.80104194	      3.63141374	     -9.25710169	     -5.04356966	    -55.57215744	     -4.23533332	      6.03456187	     13.55730934	     -1.74436150	     -6.04413238	    -16.90485830	      2.01257292	      1.67528338	     -2.86581740	     -4.14705751	      4.55969005
      4.36000000	      1.02801346	     -1.79914482	    -92.61796101	      0.53329576	      1.00943805	      0.80683747	      4.80131301	     -9.28078228	     -5.00281410	    -56.26180027	     -2.62091800	      5.19145515	     13.31853054	     -1.66461674	     -6.29837524	    -17.09989373	      2.37117387	      1.43185953	     -2.99767741	     -4.03557775	      4.14998429
      4.37000000	      0.95692362	     -1.75094353	    -93.00583305	      0.53608101	      1.01030654	      0.81241614	      5.93465823	     -9.26058938	     -4.92701718	    -56.72137739	     -1.02332968	      4.40818359	     13.08227191	     -1.59930181	     -6.62102557	    -17.29638487	      2.75230992	      1.24363484	     -3.14251628	     -3.93705436	      3.77409541
      4.38000000	      0.84051981	     -1.68309048	    -93.39517215	      0.53871144	      1.01115866	      0.81777945	      7.03781490	     -9.14669864	     -4.86237977	    -56.92184999	      0.48901568	      3.49260708	     12.85098110	     -1.58474097	     -6.90765948	    -17.43675262	      3.05473389	      1.03758423	     -3.26724317	     -3.79053996	      3.42417287
      4.39000000	      0.74912260	     -1.63185717	    -93.80080983	      0.54121556	      1.01197265	      0.82288874	      8.09663153	     -9.04042170	     -4.81117094	    -56.90316187	      1.87672443	      2.66349688	     12.61295950	     -1.55433308	     -7.25481387	    -17.57258647	      3.36961158	      0.84139652	     -3.42251081	     -3.67816306	      3.11018592
      4.40000000	      0.65249587	     -1.56344742	    -94.19696706	      0.54363754	      1.01277225	      0.82787973	      9.09765072	     -8.92266577	     -4.84600542	    -56.61230453	      3.13386554	      1.82542213	     12.34747867	     -1.52609389	     -7.59678692	    -17.59937203	      3.59860885	      0.63673926	     -3.54800174	     -3.55863312	      2.81376173
      4.41000000	      0.57768206	     -1.49945585	    -94.58562407	      0.54598076	      1.01353576	      0.83269871	     10.03004598	     -8.82460364	     -4.95035587	    -56.07526174	      4.27245826	      1.04000895	     12.06554333	     -1.47571549	     -7.95116040	    -17.58040982	      3.79280232	      0.42799520	     -3.68404431	     -3.46249421	      2.53183172
      4.42000000	      0.51595658	     -1.43751978	    -94.95384278	      0.54825285	      1.01427208	      0.83740639	     10.87648514	     -8.74209927	     -5.15094010	    -55.28192441	      5.32351681	      0.37924545	     11.75671943	     -1.40936104	     -8.31453356	    -17.49462793	      3.97277796	      0.23429337	     -3.81790116	     -3.38413763	      2.25807678
      4.43000000	      0.45316743	     -1.37311208	    -95.28769049	      0.55044733	      1.01499706	      0.84203945	     11.61878620	     -8.65269243	     -5.45329348	    -54.21527984	      6.29927309	     -0.18249318	     11.42985178	     -1.34130872	     -8.66060458	    -17.35391361	      4.11207232	      0.04988259	     -3.93872821	     -3.30718307	      1.97894882
      4.44000000	      0.38074236	     -1.30560926	    -95.58894201	      0.55253870	      1.01569255	      0.84657309	     12.26284765	     -8.53565309	     -5.83365422	    -52.90398271	      7.21718211	     -0.58194125	     11.08726726	     -1.28204948	     -8.98156959	    -17.16264460	      4.26524630	     -0.11609833	     -4.05071097	     -3.22493863	      1.69356599
      4.45000000	      0.30555057	     -1.19837009	    -95.86099063	      0.55450508	      1.01631989	      0.85099140	     12.85112612	     -8.38021331	     -6.25349439	    -51.36844690	      8.08429363	     -0.71185092	     10.78778341	     -1.23675461	     -9.31244138	    -16.95087614	      4.32750141	     -0.19183537	     -4.10944562	     -3.14434107	      1.42119208
      4.46000000	      0.16198766	     -1.13769581	    -96.07027184	      0.55638396	      1.01701234	      0.85535129	     13.25094448	     -8.12477576	     -6.75629055	    -49.59178635	      8.83431844	     -0.81078788	     10.42367626	     -1.25114818	     -9.56221659	    -16.70904140	      4.48453284	     -0.38429710	     -4.21944025	     -2.99794511	      1.11792715
      4.47000000	      0.00195777	     -1.05275670	    -96.24214597	      0.55812229	      1.01765150	      0.85958430	     13.57823823	     -7.79373825	     -7.23057863	    -47.64650446	      9.51673087	     -0.61105161	     10.09823694	     -1.29391324	     -9.80283316	    -16.47002071	      4.59312355	     -0.53396250	     -4.29736044	     -2.84600820	      0.82001343
      4.48000000	     -0.19514241	     -0.96390488	    -96.36898591	      0.55973858	      1.01826224	      0.86369014	     13.81016277	     -7.36459688	     -7.65375654	    -45.56420786	     10.11583290	     -0.12275694	      9.79375287	     -1.38107339	    -10.00301752	    -16.24746407	      4.72575561	     -0.66738662	     -4.37066291	     -2.66467692	      0.51255823
      4.49000000	     -0.42573908	     -0.87226696	    -96.44733112	      0.56124777	      1.01884187	      0.86767113	     13.95107585	     -6.84162197	     -7.98885301	    -43.38505843	     10.63834434	      0.64043542	      9.51400515	     -1.50921547	    -10.16646078	    -16.04595723	      4.87579285	     -0.79178304	     -4.44214520	     -2.45788823	      0.19992036
      4.50000000	     -0.64385125	     -0.77793912	    -96.48815932	      0.56266015	      1.01936733	      0.87152248	     14.03236101	     -6.27949802	     -8.17279914	    -41.18520807	     11.13200271	      1.71506559	      9.25821573	     -1.62810256	    -10.29154725	    -15.85478339	      4.97893785	     -0.90607947	     -4.50277364	     -2.27831131	     -0.10082964
      4.51000000	     -0.89900005	     -0.68048629	    -96.47938178	      0.56399548	      1.01983646	      0.87525588	     14.04282467	     -5.64058088	     -8.23240635	    -38.98497176	     11.55060648	      2.84102761	      9.03893197	     -1.79277058	    -10.37226645	    -15.71120120	      5.15479652	     -1.00986100	     -4.55881346	     -2.06548962	     -0.40230586
      4.52000000	     -1.15654671	     -0.58747964	    -96.42875433	      0.56528392	      1.02025127	      0.87889017	     13.99847243	     -4.97809513	     -8.13581073	    -36.84787349	     11.92962439	      4.02964697	      8.84057673	     -1.96151116	    -10.40609700	    -15.59493364	      5.34327382	     -1.10653598	     -4.60879872	     -1.85444209	     -0.70306711
      4.53000000	     -1.41122314	     -0.49872737	    -96.33706416	      0.56654127	      1.02061086	      0.88244671	     13.91164554	     -4.31910423	     -7.90777232	    -34.81916616	     12.26633047	      5.17361063	      8.65577755	     -2.12720346	    -10.39279443	    -15.49401640	      5.55715788	     -1.19499725	     -4.64673623	     -1.65016665	     -0.99122445
      4.54000000	     -1.63991177	     -0.41972928	    -96.20407638	      0.56779471	      1.02091338	      0.88593248	     13.79703795	     -3.70660344	     -7.56925511	    -32.95039877	     12.59720577	      6.22092626	      8.48440323	     -2.26540490	    -10.35356662	    -15.41456452	      5.77272239	     -1.26940253	     -4.67445668	     -1.47575573	     -1.28030386
      4.55000000	     -1.83545576	     -0.34720040	    -96.03866366	      0.56906488	      1.02116114	      0.88937225	     13.67187642	     -3.16505524	     -7.16970488	    -31.27647351	     12.91570046	      7.08267652	      8.31354845	     -2.36428426	    -10.27682383	    -15.32832585	      5.99214145	     -1.32208354	     -4.68137534	     -1.33347475	     -1.55297738
      4.56000000	     -2.01179949	     -0.27535192	    -95.84041088	      0.57035256	      1.02135205	      0.89278018	     13.54546399	     -2.68764550	     -6.76953911	    -29.80790126	     13.19293475	      7.62421652	      8.15616460	     -2.44528212	    -10.19613626	    -15.25550156	      6.24172181	     -1.35622439	     -4.65900817	     -1.20452732	     -1.82389097
